<svg xmlns="http://www.w3.org/2000/svg" xmlns:xlink="http://www.w3.org/1999/xlink" viewBox="0 0 190.69 201.32"><defs><style>.cls-1{isolation:isolate;}.cls-2{fill:#e36f25;}.cls-3{fill:#ffc070;}.cls-4{fill:#ffa248;}.cls-5{opacity:0.2;mix-blend-mode:overlay;fill:url(#linear-gradient);}.cls-6{fill:#ffe1af;}.cls-7{opacity:0.48;mix-blend-mode:multiply;}.cls-8{fill:#ce8855;}.cls-9{fill:#fff8ae;}</style><linearGradient id="linear-gradient" x1="95.35" y1="180.68" x2="95.35" y2="-180.77" gradientUnits="userSpaceOnUse"><stop offset="0"/><stop offset="0.31" stop-color="#565656"/><stop offset="0.65" stop-color="#b0b0b0"/><stop offset="0.89" stop-color="#e9e9e9"/><stop offset="1" stop-color="#fff"/></linearGradient></defs><g class="cls-1"><g id="Layer_2" data-name="Layer 2"><g id="Layer_1-2" data-name="Layer 1"><circle class="cls-2" cx="95.35" cy="105.97" r="95.35" transform="translate(-47.01 98.46) rotate(-45)"/><circle class="cls-3" cx="95.35" cy="95.35" r="95.35"/><circle class="cls-4" cx="95.35" cy="100.66" r="95.35"/><circle class="cls-5" cx="95.35" cy="100.66" r="95.35"/><path class="cls-6" d="M37.38,22c.53.8,3.36-.12,6.31-2.06s4.93-4.17,4.4-5-3.36.11-6.31,2S36.85,21.14,37.38,22Z"/><g class="cls-7"><path d="M96.25,160.78a68.33,68.33,0,0,1-17.84-2.52c-10-2.69-18.28-7.27-24.77-13.59A60.78,60.78,0,0,1,38,119a54.77,54.77,0,0,1,.69-34A66.15,66.15,0,0,1,55.41,58.82c8-7.53,18.79-12.57,31.11-14.55a59.12,59.12,0,0,1,9.41-.77,51.79,51.79,0,0,1,20.39,4.06,64.58,64.58,0,0,1,20.51,14.49,42.57,42.57,0,0,1,9.29,14.1c.57,1.39,1.1,2.88,1.6,4.44h0c.33,0,.65-.1.95-.13,1.65-.16,3.16-.26,4.62-.3h.33a5.92,5.92,0,0,1,1,.07,8.58,8.58,0,0,1,7.69,8.31,13,13,0,0,1-1.47,5.59l-.35.78a243.93,243.93,0,0,1-12.19,24.7c-1.07,1.91-2.16,3.81-3.3,5.67l-.53.89a19.09,19.09,0,0,1-3.43,4.64,10.9,10.9,0,0,1-7.39,2.88h0a10.84,10.84,0,0,1-2.79-.37,14.81,14.81,0,0,1-6.32-4.12l-.48-.47a234.62,234.62,0,0,1-19-20.49q-2-2.46-4-5c-1.5-2-3.4-4.43-3.07-8a9.28,9.28,0,0,1,7.63-8.32c.9-.19,1.8-.35,2.71-.5l-.4-.33a18.78,18.78,0,0,0-6.57-3.17,21.34,21.34,0,0,0-5.6-.75,18.68,18.68,0,0,0-10,2.77c-5.39,3.41-9.16,10.67-9.39,18.07a19.07,19.07,0,0,0,8.64,16.41,27,27,0,0,0,9.63,4,28.09,28.09,0,0,0,5.5.58h0a41.35,41.35,0,0,0,4.24-.28c.59-.07,1.19-.13,1.78-.18s.89-.06,1.32-.06c8.94,0,14,7.78,15,15s-1.81,16.34-10,19.49A45.25,45.25,0,0,1,96.25,160.78Z"/><path d="M154.13,83.87a3,3,0,0,0-.44,0h-.28c-1.45,0-2.91.14-4.36.29-1.13.11-2.55.55-3.58-.11-.82-.51-1-1.42-1.26-2.29-.45-1.42-.94-2.82-1.51-4.19a39,39,0,0,0-8.5-12.91A60.65,60.65,0,0,0,114.88,51,50.16,50.16,0,0,0,87.1,47.91C76.29,49.65,66,54,57.94,61.51a62.74,62.74,0,0,0-15.8,24.67,50.85,50.85,0,0,0-.64,31.73A57.26,57.26,0,0,0,56.21,142c6.49,6.32,14.48,10.33,23.17,12.69,10.11,2.74,21.84,3.65,31.81-.18,6.16-2.36,8.46-9.46,7.67-15.57-.82-6.33-5.28-12.37-12.28-11.75a59.7,59.7,0,0,1-6.41.48A32.4,32.4,0,0,1,94,127,30.81,30.81,0,0,1,83,122.5a22.72,22.72,0,0,1-10.27-19.59C73,94.88,77,86.2,83.87,81.84a23.29,23.29,0,0,1,18.49-2.46,22.46,22.46,0,0,1,7.86,3.82,18,18,0,0,1,2.91,2.88s.32.46.38.55a9.54,9.54,0,0,1,.54.86,1.26,1.26,0,0,1-.24,1.64c-.73.61-2.24.52-3.12.66-1.44.23-2.88.47-4.31.76a5.68,5.68,0,0,0-4.69,5c-.2,2.19,1.08,3.77,2.33,5.4s2.57,3.27,3.9,4.87a233.3,233.3,0,0,0,18.71,20.18c1.55,1.46,3.1,3.13,5.22,3.7a7.24,7.24,0,0,0,6.73-1.67,21.89,21.89,0,0,0,3.31-4.74c1.11-1.82,2.18-3.67,3.22-5.53a245.31,245.31,0,0,0,12-24.34c.64-1.51,1.57-3.19,1.53-4.87A5,5,0,0,0,154.13,83.87Z"/></g><path class="cls-8" d="M96.25,158.32a68.33,68.33,0,0,1-17.84-2.52c-10-2.69-18.28-7.27-24.77-13.59A60.78,60.78,0,0,1,38,116.53a54.77,54.77,0,0,1,.69-34A66.15,66.15,0,0,1,55.41,56.36c8-7.53,18.79-12.57,31.11-14.55A59.12,59.12,0,0,1,95.93,41a51.79,51.79,0,0,1,20.39,4.06,64.58,64.58,0,0,1,20.51,14.49,42.57,42.57,0,0,1,9.29,14.1c.57,1.39,1.1,2.88,1.6,4.44h0c.33,0,.65-.1.95-.13,1.65-.16,3.16-.26,4.62-.3h.33a5.92,5.92,0,0,1,1,.07,8.58,8.58,0,0,1,7.69,8.31,13,13,0,0,1-1.47,5.59l-.35.78a243.93,243.93,0,0,1-12.19,24.7c-1.07,1.91-2.16,3.81-3.3,5.67l-.53.89a19.09,19.09,0,0,1-3.43,4.64,10.9,10.9,0,0,1-7.39,2.88h0a10.84,10.84,0,0,1-2.79-.37,14.81,14.81,0,0,1-6.32-4.12l-.48-.47a234.62,234.62,0,0,1-19-20.49q-2-2.46-4-5c-1.5-2-3.4-4.43-3.07-8a9.28,9.28,0,0,1,7.63-8.32c.9-.19,1.8-.35,2.71-.5l-.4-.33a18.78,18.78,0,0,0-6.57-3.17,21.34,21.34,0,0,0-5.6-.75,18.68,18.68,0,0,0-10,2.77c-5.39,3.41-9.16,10.67-9.39,18.07A19.07,19.07,0,0,0,85.08,117a27,27,0,0,0,9.63,4,28.09,28.09,0,0,0,5.5.58h0a41.35,41.35,0,0,0,4.24-.28c.59-.07,1.19-.13,1.78-.18s.89-.06,1.32-.06c8.94,0,14,7.78,15,15s-1.81,16.34-10,19.49A45.25,45.25,0,0,1,96.25,158.32Z"/><path class="cls-9" d="M154.13,81.41a3,3,0,0,0-.44,0h-.28c-1.45,0-2.91.14-4.36.29-1.13.11-2.55.55-3.58-.11-.82-.51-1-1.42-1.26-2.29-.45-1.42-.94-2.82-1.51-4.19a39,39,0,0,0-8.5-12.91A60.65,60.65,0,0,0,114.88,48.5a50.16,50.16,0,0,0-27.78-3C76.29,47.19,66,51.51,57.94,59.05a62.74,62.74,0,0,0-15.8,24.67,50.85,50.85,0,0,0-.64,31.73,57.26,57.26,0,0,0,14.71,24.11c6.49,6.32,14.48,10.32,23.17,12.69,10.11,2.74,21.84,3.65,31.81-.18,6.16-2.36,8.46-9.46,7.67-15.57-.82-6.33-5.28-12.37-12.28-11.75a59.7,59.7,0,0,1-6.41.48,32.4,32.4,0,0,1-6.21-.65A30.81,30.81,0,0,1,83,120a22.72,22.72,0,0,1-10.27-19.59c.25-8,4.21-16.71,11.12-21.07a23.29,23.29,0,0,1,18.49-2.46,22.46,22.46,0,0,1,7.86,3.82,18,18,0,0,1,2.91,2.88s.32.46.38.55a9.54,9.54,0,0,1,.54.86,1.26,1.26,0,0,1-.24,1.64c-.73.61-2.24.52-3.12.66-1.44.23-2.88.47-4.31.76a5.68,5.68,0,0,0-4.69,5c-.2,2.19,1.08,3.77,2.33,5.4s2.57,3.27,3.9,4.87a233.3,233.3,0,0,0,18.71,20.18c1.55,1.46,3.1,3.13,5.22,3.7a7.24,7.24,0,0,0,6.73-1.67,21.89,21.89,0,0,0,3.31-4.74c1.11-1.82,2.18-3.67,3.22-5.53a245.31,245.31,0,0,0,12-24.34c.64-1.51,1.57-3.19,1.53-4.87A5,5,0,0,0,154.13,81.41Z"/></g></g></g></svg>