<svg width="76" height="86" viewBox="0 0 76 86" fill="none" xmlns="http://www.w3.org/2000/svg">
<g filter="url(#filter0_d_5_117)">
<circle cx="38" cy="38" r="38" fill="#AFDBAF"/>
<circle cx="38" cy="43.7576" r="38" fill="#54B081"/>
<circle cx="38" cy="40.8788" r="38" fill="#7BD194"/>
<circle cx="37.7121" cy="41.1667" r="33.1061" fill="#59B575"/>
</g>
<path d="M40.3077 28.3077C40.3077 27.0312 39.2764 26 38 26C36.7236 26 35.6923 27.0312 35.6923 28.3077V38.6923H25.3077C24.0312 38.6923 23 39.7236 23 41C23 42.2764 24.0312 43.3077 25.3077 43.3077H35.6923V53.6923C35.6923 54.9688 36.7236 56 38 56C39.2764 56 40.3077 54.9688 40.3077 53.6923V43.3077H50.6923C51.9688 43.3077 53 42.2764 53 41C53 39.7236 51.9688 38.6923 50.6923 38.6923H40.3077V28.3077Z" fill="white"/>
<defs>
<filter id="filter0_d_5_117" x="0" y="0" width="76" height="85.7576" filterUnits="userSpaceOnUse" color-interpolation-filters="sRGB">
<feFlood flood-opacity="0" result="BackgroundImageFix"/>
<feColorMatrix in="SourceAlpha" type="matrix" values="0 0 0 0 0 0 0 0 0 0 0 0 0 0 0 0 0 0 127 0" result="hardAlpha"/>
<feOffset dy="4"/>
<feComposite in2="hardAlpha" operator="out"/>
<feColorMatrix type="matrix" values="0 0 0 0 0 0 0 0 0 0 0 0 0 0 0 0 0 0 0.25 0"/>
<feBlend mode="normal" in2="BackgroundImageFix" result="effect1_dropShadow_5_117"/>
<feBlend mode="normal" in="SourceGraphic" in2="effect1_dropShadow_5_117" result="shape"/>
</filter>
</defs>
</svg>
