<svg xmlns="http://www.w3.org/2000/svg" xmlns:xlink="http://www.w3.org/1999/xlink" viewBox="0 0 190.69 201.32"><defs><style>.cls-1{isolation:isolate;}.cls-2{fill:#e36f25;}.cls-3{fill:#ffc070;}.cls-4{fill:#ffa248;}.cls-5{opacity:0.2;mix-blend-mode:overlay;fill:url(#linear-gradient);}.cls-6{fill:#ffe1af;}.cls-7{opacity:0.48;mix-blend-mode:multiply;}.cls-8{fill:#ce8855;}.cls-9{fill:#fff8ae;}</style><linearGradient id="linear-gradient" x1="95.35" y1="180.68" x2="95.35" y2="-180.77" gradientUnits="userSpaceOnUse"><stop offset="0"/><stop offset="0.31" stop-color="#565656"/><stop offset="0.65" stop-color="#b0b0b0"/><stop offset="0.89" stop-color="#e9e9e9"/><stop offset="1" stop-color="#fff"/></linearGradient></defs><g class="cls-1"><g id="Layer_2" data-name="Layer 2"><g id="Layer_1-2" data-name="Layer 1"><circle class="cls-2" cx="95.35" cy="105.97" r="95.35"/><circle class="cls-3" cx="95.35" cy="95.35" r="95.35"/><circle class="cls-4" cx="95.35" cy="100.66" r="95.35"/><circle class="cls-5" cx="95.35" cy="100.66" r="95.35"/><path class="cls-6" d="M37.38,22c.53.8,3.36-.12,6.31-2.06s4.93-4.17,4.4-5-3.36.11-6.31,2S36.85,21.14,37.38,22Z"/><g class="cls-7"><path d="M124.87,170.29q-8.31,0-16.6,0l-23.62-.12L65,170l-9.06,0a11,11,0,0,1-6.12-1.38,9.28,9.28,0,0,1-4.19-6.1,26.67,26.67,0,0,1-.25-5c0-.54,0-1.07,0-1.59q0-3.07,0-6.17,0-6.28,0-12.58l0-20.36a4,4,0,0,0-.31-2.25c-.42-.55-1-.69-2.82-.69H36.63l-.37,0a8.58,8.58,0,0,1-7.76-8.53c0-4,2.79-6.62,5-8.76.43-.4.85-.8,1.23-1.19l24-24.75Q67.19,62,75.58,53.41L78,50.93c1.83-1.9,3.66-3.79,5.55-5.62a12.88,12.88,0,0,1,8.89-3.66,12.36,12.36,0,0,1,3.43.49c3.31,1,5.61,3.32,7.63,5.39l1.06,1.06Q108,52,111.48,55.41q7.71,7.64,15.41,15.32L153,96.84c.38.38.64.62.9.86a14.43,14.43,0,0,1,2.76,3.17,8.81,8.81,0,0,1-3,11.8,9.76,9.76,0,0,1-5.3,1.22l-1.54,0h-6.05c-1.73,0-2,.75-2.13,1a5.85,5.85,0,0,0-.11,1.82l0,.82s0,11,0,14.37q0,10.47,0,21c0,.9,0,1.82,0,2.74a60.73,60.73,0,0,1-.09,6.17,9.17,9.17,0,0,1-3.68,6.73,10.15,10.15,0,0,1-6.3,1.81ZM104,144.08c.74,0,1.45,0,2.16,0,.91,0,1.81,0,2.72,0,.74,0,1.49,0,2.24,0,0-.31,0-.68,0-.94V136.9H110l-3.23,0c-.39,0-.82,0-1.28-.06s-.76,0-1.15,0H104c0,.21,0,1.19,0,1.19v5.57C104,143.79,104,144,104,144.08Zm-29.9,0c.73,0,1.45,0,2.16,0,.91,0,1.81,0,2.72,0l2.23,0c0-.31,0-.67,0-.93V136.9H80.09l-3.23,0c-.39,0-.82,0-1.28-.06s-.76,0-1.15,0h-.34c0,.21,0,.47,0,.67v6.09C74.1,143.79,74.11,144,74.12,144.08Zm29.9-29c.74,0,1.45.05,2.16.05.91,0,1.81,0,2.72,0l2.24,0c0-.3,0-.67,0-.93v-6.23H110l-3.23,0c-.39,0-.82,0-1.28-.06s-.76,0-1.15,0H104c0,.22,0,1.19,0,1.19v5.58C104,114.77,104,114.94,104,115.07Zm-29.9,0c.73,0,1.45,0,2.16,0,.9,0,1.81,0,2.72,0l2.23,0c0-.3,0-.66,0-.92v-6.24H80.09l-3.23,0c-.39,0-.82,0-1.28-.05s-.76-.06-1.15-.06h-.34c0,.22,0,.48,0,.68v6.09C74.1,114.75,74.11,114.92,74.12,115.05Z"/><path d="M154.41,102.21a18.25,18.25,0,0,0-3.11-3.35l-3.45-3.45-7.3-7.28L125,72.61q-7.7-7.67-15.4-15.31-3.45-3.42-6.92-6.82c-2.26-2.23-4.42-4.86-7.57-5.79a10,10,0,0,0-9.72,2.52c-2.7,2.62-5.29,5.38-7.92,8.06q-8.4,8.58-16.76,17.18-8.19,8.43-16.39,16.87l-7.66,7.89c-2.19,2.25-5.53,4.62-5.52,8.08a6,6,0,0,0,5.55,5.92,2.22,2.22,0,0,0,.45,0h5.1c1.88,0,3.68.07,4.94,1.74,1,1.32.84,2.89.84,4.44,0,2.28,0,4.57,0,6.85q0,6.47,0,12.92,0,6.29,0,12.57,0,3.07,0,6.15a37.22,37.22,0,0,0,.2,6.16,6.53,6.53,0,0,0,3,4.31,8.6,8.6,0,0,0,4.73,1l9.06,0c14.42.06,28.84.16,43.27.22q10.09,0,20.2,0a7.46,7.46,0,0,0,4.71-1.28,6.59,6.59,0,0,0,2.63-4.81c.23-2.87,0-5.84,0-8.71q0-10.49.06-21v-9.94c0-1.47,0-3,0-4.42a9.66,9.66,0,0,1,.28-3.64c.78-2,2.65-2.66,4.59-2.66h6.05c1.87,0,3.79.19,5.47-.83A6.1,6.1,0,0,0,154.41,102.21Zm-51.73,32.17c1.16-.45,2.88-.13,4.08-.13,1.61,0,3.24-.05,4.85,0s2.2,1.18,2.2,2.58V143c0,1.6.08,3.66-2.11,3.75-2.74,0-5.53.18-8.27,0-1.85-.12-2.08-1.64-2.08-3.14V138C101.35,136.64,101.12,135,102.68,134.38Zm.75-16.69c-1.85-.12-2.08-1.63-2.08-3.13V109c0-1.35-.23-3,1.33-3.61,1.16-.45,2.88-.14,4.08-.14,1.61,0,3.24,0,4.85,0s2.2,1.19,2.2,2.59V114c0,1.59.08,3.66-2.11,3.74C109,117.69,106.17,117.87,103.43,117.69ZM72.78,134.38c1.15-.45,2.88-.13,4.08-.13,1.61,0,3.23-.05,4.84,0s2.21,1.18,2.21,2.58V143c0,1.6.08,3.66-2.11,3.75-2.74,0-5.53.18-8.27,0-1.86-.12-2.08-1.64-2.08-3.14V138C71.45,136.64,71.21,135,72.78,134.38Zm11.13-20.45c0,1.59.08,3.66-2.11,3.75-2.74,0-5.53.17-8.27,0-1.86-.13-2.08-1.64-2.08-3.14V109c0-1.35-.24-3,1.33-3.61,1.15-.45,2.88-.13,4.08-.13,1.61,0,3.23,0,4.84,0s2.21,1.18,2.21,2.58Z"/></g><path class="cls-8" d="M124.87,168.52q-8.31,0-16.6,0l-23.62-.12L65,168.27l-9.06,0a11,11,0,0,1-6.12-1.38,9.28,9.28,0,0,1-4.19-6.1,26.67,26.67,0,0,1-.25-5c0-.54,0-1.07,0-1.59,0-2.06,0-4.11,0-6.17q0-6.28,0-12.59l0-20.35a4,4,0,0,0-.31-2.25c-.42-.55-1-.69-2.82-.69H36.63l-.37,0a8.58,8.58,0,0,1-7.76-8.53c0-4,2.79-6.62,5-8.76.43-.4.85-.8,1.23-1.19l24-24.75q8.37-8.61,16.76-17.19L78,49.15c1.83-1.89,3.66-3.78,5.55-5.61a12.88,12.88,0,0,1,8.89-3.66,12,12,0,0,1,3.43.49c3.31,1,5.61,3.32,7.63,5.38.35.36.7.72,1.06,1.07q3.47,3.39,6.92,6.82,7.71,7.63,15.41,15.32L153,95.07c.38.38.64.62.9.86a14.43,14.43,0,0,1,2.76,3.17,8.81,8.81,0,0,1-3,11.8,9.76,9.76,0,0,1-5.3,1.22l-1.54,0h-6.05c-1.73,0-2,.75-2.13,1a6,6,0,0,0-.11,1.83l0,.82s0,11.05,0,14.37q0,10.47,0,20.95c0,.91,0,1.83,0,2.75a60.73,60.73,0,0,1-.09,6.17,9.17,9.17,0,0,1-3.68,6.73,10.15,10.15,0,0,1-6.3,1.81ZM104,142.31c.74,0,1.45.05,2.16.05.91,0,1.81,0,2.72,0l2.24,0c0-.3,0-.67,0-.93v-6.22h-4.39c-.39,0-.82,0-1.28,0s-.76-.05-1.15-.05H104c0,.21,0,1.18,0,1.18v5.58C104,142,104,142.18,104,142.31Zm-29.9,0c.73,0,1.45.05,2.16.05.91,0,1.81,0,2.72,0l2.23,0c0-.3,0-.66,0-.92v-6.23H76.86c-.39,0-.82,0-1.28,0s-.76-.05-1.15-.05h-.34c0,.21,0,.47,0,.67v6.09C74.1,142,74.11,142.18,74.12,142.31Zm29.9-29c.74,0,1.45,0,2.16,0,.91,0,1.81,0,2.72,0l2.24,0c0-.3,0-.67,0-.93v-6.23H110l-3.23,0c-.39,0-.82,0-1.28-.06s-.76,0-1.15,0H104c0,.22,0,1.19,0,1.19v5.58C104,113,104,113.17,104,113.3Zm-29.9,0c.73,0,1.45,0,2.16,0,.9,0,1.81,0,2.72,0l2.23,0c0-.3,0-.66,0-.92v-6.24H80.09l-3.23,0c-.39,0-.82,0-1.28-.06s-.76-.05-1.15-.05h-.34c0,.22,0,.48,0,.68v6.09C74.1,113,74.11,113.15,74.12,113.28Z"/><path class="cls-9" d="M154.41,100.44a18.25,18.25,0,0,0-3.11-3.35l-3.45-3.45-7.3-7.28L125,70.84q-7.7-7.66-15.4-15.31-3.45-3.42-6.92-6.82c-2.26-2.23-4.42-4.86-7.57-5.79a10,10,0,0,0-9.72,2.52c-2.7,2.62-5.29,5.37-7.92,8.06q-8.4,8.58-16.76,17.18-8.19,8.43-16.39,16.87l-7.66,7.89c-2.19,2.25-5.53,4.62-5.52,8.08a6,6,0,0,0,5.55,5.92,2.22,2.22,0,0,0,.45,0h5.1c1.88,0,3.68.07,4.94,1.74,1,1.32.84,2.89.84,4.44,0,2.28,0,4.57,0,6.85q0,6.46,0,12.92,0,6.28,0,12.57,0,3.08,0,6.15a37.22,37.22,0,0,0,.2,6.16,6.56,6.56,0,0,0,3,4.31,8.6,8.6,0,0,0,4.73,1l9.06,0c14.42.06,28.84.16,43.27.22q10.09,0,20.2,0a7.41,7.41,0,0,0,4.71-1.29,6.55,6.55,0,0,0,2.63-4.8c.23-2.87,0-5.84,0-8.71q0-10.49.06-20.95v-9.94c0-1.47,0-3,0-4.42a9.66,9.66,0,0,1,.28-3.64c.78-2,2.65-2.66,4.59-2.66h6.05c1.87,0,3.79.19,5.47-.83A6.1,6.1,0,0,0,154.41,100.44Zm-51.73,32.17c1.16-.45,2.88-.13,4.08-.13,1.61,0,3.24,0,4.85,0s2.2,1.18,2.2,2.58v6.13c0,1.6.08,3.66-2.11,3.75-2.74,0-5.53.18-8.27,0-1.85-.12-2.08-1.64-2.08-3.14v-5.58C101.35,134.87,101.12,133.22,102.68,132.61Zm.75-16.69c-1.85-.12-2.08-1.64-2.08-3.13v-5.58c0-1.35-.23-3,1.33-3.62,1.16-.44,2.88-.13,4.08-.13,1.61,0,3.24,0,4.85,0s2.2,1.19,2.2,2.59v6.13c0,1.59.08,3.66-2.11,3.74C109,115.92,106.17,116.1,103.43,115.92ZM72.78,132.61c1.15-.45,2.88-.13,4.08-.13,1.61,0,3.23,0,4.84,0s2.21,1.18,2.21,2.58v6.13c0,1.6.08,3.66-2.11,3.75-2.74,0-5.53.18-8.27,0-1.86-.12-2.08-1.64-2.08-3.14v-5.58C71.45,134.87,71.21,133.22,72.78,132.61Zm11.13-20.45c0,1.59.08,3.66-2.11,3.74-2.74,0-5.53.18-8.27,0-1.86-.12-2.08-1.63-2.08-3.13v-5.58c0-1.35-.24-3,1.33-3.61,1.15-.45,2.88-.14,4.08-.14,1.61,0,3.23,0,4.84,0s2.21,1.19,2.21,2.59Z"/></g></g></g></svg>