<svg xmlns="http://www.w3.org/2000/svg" viewBox="0 0 190.69 202.04"><defs><style>.cls-1{fill:#54b081;}.cls-2{fill:#afdbaf;}.cls-3{fill:#7bd194;}.cls-4{fill:#59b575;}.cls-5{fill:#fff;}</style></defs><g id="Layer_2" data-name="Layer 2"><g id="Layer_1-2" data-name="Layer 1"><circle class="cls-1" cx="95.35" cy="106.69" r="95.35"/><circle class="cls-2" cx="95.35" cy="95.35" r="95.35" transform="translate(-39.49 95.35) rotate(-45)"/><circle class="cls-3" cx="95.35" cy="101.02" r="95.35" transform="translate(-43.5 97.01) rotate(-45)"/><path class="cls-4" d="M95.35,173.67A72.66,72.66,0,1,1,168,101,72.74,72.74,0,0,1,95.35,173.67Z"/><path class="cls-5" d="M123,89.67A8.46,8.46,0,0,1,129,92a8,8,0,0,1,0,11.61,8.33,8.33,0,0,1-6,2.4H67.39a8.33,8.33,0,0,1-6-2.4,8,8,0,0,1,0-11.61,8.46,8.46,0,0,1,6-2.35H123Z"/></g></g></svg>