<svg xmlns="http://www.w3.org/2000/svg" xmlns:xlink="http://www.w3.org/1999/xlink" viewBox="0 0 190.69 201.32"><defs><style>.cls-1{isolation:isolate;}.cls-2{fill:#e36f25;}.cls-3{fill:#ffc070;}.cls-4{fill:#ffa248;}.cls-5{opacity:0.2;mix-blend-mode:overlay;fill:url(#linear-gradient);}.cls-6{fill:#ffe1af;}.cls-7{opacity:0.48;mix-blend-mode:multiply;}.cls-8{fill:#ce8855;}.cls-9{fill:#fff8ae;}</style><linearGradient id="linear-gradient" x1="95.35" y1="180.68" x2="95.35" y2="-180.77" gradientTransform="translate(99.1 -37.94) rotate(45)" gradientUnits="userSpaceOnUse"><stop offset="0"/><stop offset="0.31" stop-color="#565656"/><stop offset="0.65" stop-color="#b0b0b0"/><stop offset="0.89" stop-color="#e9e9e9"/><stop offset="1" stop-color="#fff"/></linearGradient></defs><g class="cls-1"><g id="Layer_2" data-name="Layer 2"><g id="Layer_1-2" data-name="Layer 1"><circle class="cls-2" cx="95.35" cy="105.97" r="95.35" transform="translate(-47.01 98.46) rotate(-45)"/><circle class="cls-3" cx="95.35" cy="95.35" r="95.35" transform="translate(-39.49 95.35) rotate(-45)"/><circle class="cls-4" cx="95.35" cy="100.66" r="95.35" transform="translate(-43.25 96.9) rotate(-45)"/><circle class="cls-5" cx="95.35" cy="100.66" r="95.35" transform="translate(-43.25 96.9) rotate(-45)"/><path class="cls-6" d="M37.38,22c.53.8,3.36-.12,6.31-2.06s4.93-4.17,4.4-5-3.36.11-6.31,2S36.85,21.14,37.38,22Z"/><g class="cls-7"><path d="M108.91,157.46a17.53,17.53,0,0,1-5.25-.75,19.17,19.17,0,0,1-10.24-8.2,35.31,35.31,0,0,1-3.67-7.59A133.46,133.46,0,0,1,64,154.47c-4,1.6-7.6,2.92-11.67,2.92a17.7,17.7,0,0,1-4.91-.69,20,20,0,0,1-12.33-10.56c-3.82-7.62-6.2-16.46-7.29-27a113.5,113.5,0,0,1,1-29.45A87.82,87.82,0,0,1,37,63.48a18.4,18.4,0,0,1,12.28-9.34,17.49,17.49,0,0,1,3.53-.37A26,26,0,0,1,62.46,56a114.31,114.31,0,0,1,12,5.6A129.61,129.61,0,0,1,90.29,71.74c2-6.62,5.85-15.5,15.06-17.57a20.15,20.15,0,0,1,4.5-.49c6.53,0,12.85,2.82,18.17,5.59a129,129,0,0,1,21.49,14.5,169.54,169.54,0,0,1,16.3,14.72,33.5,33.5,0,0,1,6,7.77,22.17,22.17,0,0,1,.67,18.27c-2.65,6.53-8,11.33-12.68,15.56a160.77,160.77,0,0,1-20.39,15.63c-6.06,3.9-14.17,8.64-23.18,10.76a31.9,31.9,0,0,1-7.35,1Z"/><path d="M168.64,97.87a29.81,29.81,0,0,0-5.42-6.9,163.5,163.5,0,0,0-15.94-14.4,128.75,128.75,0,0,0-20.91-14.13c-6-3.09-13.36-6.33-20.23-4.78-8.4,1.89-11.38,11.18-13.39,18.46l-.46,1.69a128.9,128.9,0,0,0-19.53-13,113.55,113.55,0,0,0-11.62-5.43C57.46,57.88,54,56.81,50,57.64a14.77,14.77,0,0,0-9.83,7.47,84.34,84.34,0,0,0-7.89,25.14,109.93,109.93,0,0,0-.94,28.53c.91,8.87,2.91,17.74,6.93,25.76a16.45,16.45,0,0,0,10.12,8.72c5.07,1.46,9.58-.23,14.26-2.11a126.7,126.7,0,0,0,29.11-16.06c.2.79.39,1.58.63,2.35a35.45,35.45,0,0,0,4,9.09,15.86,15.86,0,0,0,8.32,6.77c3.42,1.07,7.3.5,10.72-.3,7.89-1.86,15.29-5.93,22.06-10.29a157,157,0,0,0,19.84-15.2c4.56-4.11,9.49-8.52,11.84-14.33A18.63,18.63,0,0,0,168.64,97.87Z"/></g><path class="cls-8" d="M108.91,155.08a17.52,17.52,0,0,1-5.25-.76,19.17,19.17,0,0,1-10.24-8.2,34.85,34.85,0,0,1-3.67-7.59A132.91,132.91,0,0,1,64,152.08c-4,1.6-7.6,2.92-11.67,2.92a17.7,17.7,0,0,1-4.91-.69,20,20,0,0,1-12.33-10.55c-3.82-7.63-6.2-16.46-7.29-27a113.58,113.58,0,0,1,1-29.46A88,88,0,0,1,37,61.09a18.46,18.46,0,0,1,12.28-9.34,17.47,17.47,0,0,1,3.53-.36,25.94,25.94,0,0,1,9.68,2.25,114.39,114.39,0,0,1,12,5.61A129.61,129.61,0,0,1,90.29,69.36c2-6.62,5.85-15.5,15.06-17.58a20.75,20.75,0,0,1,4.5-.48c6.53,0,12.85,2.82,18.17,5.58,6.67,3.46,13.3,7.94,21.49,14.51a168.23,168.23,0,0,1,16.3,14.72,33.5,33.5,0,0,1,6,7.77,22.15,22.15,0,0,1,.67,18.26c-2.65,6.54-8,11.33-12.68,15.56a159.94,159.94,0,0,1-20.39,15.64c-6.06,3.9-14.17,8.64-23.18,10.75a32,32,0,0,1-7.35,1Z"/><path class="cls-9" d="M168.64,95.49a29.86,29.86,0,0,0-5.42-6.91,166.12,166.12,0,0,0-15.94-14.4,128.69,128.69,0,0,0-20.91-14.12c-6-3.1-13.36-6.33-20.23-4.79-8.4,1.89-11.38,11.18-13.39,18.46-.15.57-.31,1.13-.46,1.7a127.42,127.42,0,0,0-19.53-13A113.63,113.63,0,0,0,61.14,57C57.46,55.5,54,54.43,50,55.25a14.76,14.76,0,0,0-9.83,7.48,84.34,84.34,0,0,0-7.89,25.14,109.87,109.87,0,0,0-.94,28.52c.91,8.88,2.91,17.75,6.93,25.77a16.43,16.43,0,0,0,10.12,8.71c5.07,1.47,9.58-.23,14.26-2.11A126,126,0,0,0,91.74,132.7c.2.8.39,1.59.63,2.35a35.51,35.51,0,0,0,4,9.1,15.85,15.85,0,0,0,8.32,6.76c3.42,1.07,7.3.5,10.72-.3,7.89-1.85,15.29-5.93,22.06-10.28a156.19,156.19,0,0,0,19.84-15.21c4.56-4.1,9.49-8.51,11.84-14.32A18.63,18.63,0,0,0,168.64,95.49Z"/></g></g></g></svg>