<svg xmlns="http://www.w3.org/2000/svg" xmlns:xlink="http://www.w3.org/1999/xlink" viewBox="0 0 190.69 201.32"><defs><style>.cls-1{isolation:isolate;}.cls-2{fill:#e36f25;}.cls-3{fill:#ffc070;}.cls-4{fill:#ffa248;}.cls-5{opacity:0.2;mix-blend-mode:overlay;fill:url(#linear-gradient);}.cls-6{fill:#ffe1af;}.cls-7{opacity:0.48;mix-blend-mode:multiply;}.cls-8{fill:#ce8855;}.cls-9{fill:#fff8ae;}</style><linearGradient id="linear-gradient" x1="95.35" y1="180.68" x2="95.35" y2="-180.77" gradientUnits="userSpaceOnUse"><stop offset="0"/><stop offset="0.31" stop-color="#565656"/><stop offset="0.65" stop-color="#b0b0b0"/><stop offset="0.89" stop-color="#e9e9e9"/><stop offset="1" stop-color="#fff"/></linearGradient></defs><g class="cls-1"><g id="Layer_2" data-name="Layer 2"><g id="Layer_1-2" data-name="Layer 1"><circle class="cls-2" cx="95.35" cy="105.97" r="95.35"/><circle class="cls-3" cx="95.35" cy="95.35" r="95.35"/><circle class="cls-4" cx="95.35" cy="100.66" r="95.35"/><circle class="cls-5" cx="95.35" cy="100.66" r="95.35"/><path class="cls-6" d="M37.38,22c.53.8,3.36-.12,6.31-2.06s4.93-4.17,4.4-5-3.36.11-6.31,2S36.85,21.14,37.38,22Z"/><g class="cls-7"><path d="M43.49,150a14.14,14.14,0,0,1-1.56-.09,12.43,12.43,0,0,1-10.73-8.22c-2.57-6.59-3-13.43-2.94-21.67-.35-6.17.63-13.53,3-22.34A68.06,68.06,0,0,1,42.48,73.9C46.72,68.29,51.6,64.73,57.39,63A26.07,26.07,0,0,1,64.76,62a27,27,0,0,1,4.46.37A40.25,40.25,0,0,1,85.31,69a7.81,7.81,0,0,0,4.48,1.43h.35c.42,0,.85,0,1.27,0s1.1,0,1.65,0l1.53,0a19.57,19.57,0,0,0,2-.09,13.35,13.35,0,0,0,4.09-1.17c1.23-.59,2.43-1.26,3.69-2a43.91,43.91,0,0,1,5.69-2.88,31.68,31.68,0,0,1,11.67-2.38c8.39,0,15.94,4,21.84,11.52a61.72,61.72,0,0,1,11,22.59,113.7,113.7,0,0,1,3.21,15.52,90.35,90.35,0,0,1,.31,12.28l-.05,2.64a48.6,48.6,0,0,1-2.48,14.47,12.89,12.89,0,0,1-12.38,9,14.42,14.42,0,0,1-8.5-2.84,101.18,101.18,0,0,1-17-16.29,7.75,7.75,0,0,0-6.42-3c-6.08.05-12.06.07-18,.07s-12,0-18-.06h0a8.39,8.39,0,0,0-6.64,3c-4.93,5.28-9.64,10-14.38,14.31C52,147.25,48.42,150,43.49,150ZM64.73,98.25V108l2.35,0,0-7V98.25h9.72l0-2.34-7,0H67V86.22l-2.35,0,0,7V96H55.05V98.3l7,0Zm52.52,2.17a3.52,3.52,0,0,0-3.57,3.52,3.71,3.71,0,0,0,1.1,2.68,3.55,3.55,0,0,0,2.5,1.08,3.92,3.92,0,0,0,3.68-3.63,3.56,3.56,0,0,0-1-2.54,3.73,3.73,0,0,0-2.65-1.11l0-2.66Zm16.61-8.54a3.62,3.62,0,0,0-2.56,1.17,3.37,3.37,0,0,0-1,2.41A4,4,0,0,0,134,99.17,3.66,3.66,0,0,0,136.56,98a3.74,3.74,0,0,0,1.12-2.63,3.55,3.55,0,0,0-3.75-3.5V89.22Z"/><path d="M155.14,111.86A111.16,111.16,0,0,0,152,96.7a58.86,58.86,0,0,0-10.49-21.62c-8-10.27-18.76-12.94-30.44-8.31-3.21,1.26-6.09,3.3-9.22,4.79A16.07,16.07,0,0,1,96.91,73c-2.2.24-4.44,0-6.66.08a10.41,10.41,0,0,1-6.42-1.87,37.72,37.72,0,0,0-15-6.23,23.45,23.45,0,0,0-10.65.63c-5.67,1.66-10,5.26-13.54,9.92A66,66,0,0,0,33.82,98.39c-2,7.36-3.28,14.86-2.9,21.69-.09,7.61.27,14.32,2.75,20.67a9.78,9.78,0,0,0,8.57,6.54c4.23.49,7.46-1.52,10.25-4.08,4.93-4.52,9.66-9.27,14.23-14.16a10.94,10.94,0,0,1,8.6-3.85q17.93.14,35.86,0a10.43,10.43,0,0,1,8.55,3.92A97.3,97.3,0,0,0,136.24,145c6.22,4.52,14.45,2.25,16.79-4.89a45.21,45.21,0,0,0,2.35-13.67A112.31,112.31,0,0,0,155.14,111.86ZM79.38,98.3a2.61,2.61,0,0,1-2.62,2.61H69.7V108a2.61,2.61,0,0,1-2.62,2.61H64.69A2.61,2.61,0,0,1,62.08,108v-7.07H55A2.61,2.61,0,0,1,52.4,98.3V95.91A2.61,2.61,0,0,1,55,93.29h7.07V86.22a2.61,2.61,0,0,1,2.61-2.61h2.39a2.61,2.61,0,0,1,2.62,2.61v7.07h7.06a2.62,2.62,0,0,1,2.62,2.62Zm37.89-19.14a6.59,6.59,0,0,1,6.35,6.45c-.08,3.16-2.86,6.42-6.34,6.14A6.07,6.07,0,0,1,111,85.61,6.45,6.45,0,0,1,117.27,79.16Zm0,31.19a6.37,6.37,0,0,1-6.25-6.42,6.18,6.18,0,0,1,6.27-6.17,6.34,6.34,0,0,1,6.33,6.33A6.55,6.55,0,0,1,117.27,110.35Zm16.78-8.52a6.62,6.62,0,0,1-6.37-6.27,6.29,6.29,0,0,1,6.15-6.34,6.23,6.23,0,0,1,6.51,6.12A6.59,6.59,0,0,1,134.05,101.83Z"/></g><path class="cls-8" d="M43.49,148.25a14.14,14.14,0,0,1-1.56-.09,12.43,12.43,0,0,1-10.73-8.22c-2.57-6.59-3-13.43-2.94-21.67-.35-6.17.63-13.53,3-22.34a68,68,0,0,1,11.22-23.8C46.72,66.52,51.6,63,57.39,61.26a26.07,26.07,0,0,1,7.37-1.07,27,27,0,0,1,4.46.37,40.11,40.11,0,0,1,16.09,6.65,7.81,7.81,0,0,0,4.48,1.43h.35c.42,0,.85,0,1.27,0s1.1,0,1.65,0l1.53,0a19.57,19.57,0,0,0,2-.09,13.35,13.35,0,0,0,4.09-1.17c1.23-.59,2.43-1.27,3.69-2a45.17,45.17,0,0,1,5.69-2.87,31.68,31.68,0,0,1,11.67-2.38c8.39,0,15.94,4,21.84,11.52a61.72,61.72,0,0,1,11,22.59,113.7,113.7,0,0,1,3.21,15.52,90.31,90.31,0,0,1,.31,12.28L158,124.7a48.53,48.53,0,0,1-2.48,14.46,12.89,12.89,0,0,1-12.38,9.05,14.42,14.42,0,0,1-8.5-2.84,101.18,101.18,0,0,1-17-16.29,7.75,7.75,0,0,0-6.42-3c-6.08,0-12.06.07-18,.07s-12,0-18-.06h0a8.36,8.36,0,0,0-6.64,3c-4.93,5.28-9.64,10-14.38,14.31C52,145.48,48.42,148.25,43.49,148.25ZM64.73,96.48v9.73l2.35,0,0-7V96.48h9.72l0-2.34-7,0H67V84.45l-2.35,0,0,7v2.66H55.05v2.34l7,0Zm52.52,2.17a3.52,3.52,0,0,0-3.57,3.52,3.71,3.71,0,0,0,1.1,2.68,3.55,3.55,0,0,0,2.5,1.08A3.92,3.92,0,0,0,121,102.3a3.56,3.56,0,0,0-1-2.54,3.73,3.73,0,0,0-2.65-1.11l0-2.66Zm16.61-8.54a3.62,3.62,0,0,0-2.56,1.17,3.37,3.37,0,0,0-1,2.41A4,4,0,0,0,134,97.4a3.93,3.93,0,0,0,3.67-3.79,3.55,3.55,0,0,0-3.75-3.5V87.45Z"/><path class="cls-9" d="M155.14,110.09A111.16,111.16,0,0,0,152,94.93a58.86,58.86,0,0,0-10.49-21.62c-8-10.27-18.76-12.94-30.44-8.31-3.21,1.26-6.09,3.3-9.22,4.79a16.07,16.07,0,0,1-4.94,1.41c-2.2.24-4.44,0-6.66.08a10.41,10.41,0,0,1-6.42-1.87,37.72,37.72,0,0,0-15-6.23,23.59,23.59,0,0,0-10.65.62c-5.67,1.67-10,5.27-13.54,9.93A66,66,0,0,0,33.82,96.62c-2,7.35-3.28,14.86-2.9,21.69-.09,7.61.27,14.31,2.75,20.67a9.78,9.78,0,0,0,8.57,6.54c4.23.49,7.46-1.52,10.25-4.08,4.93-4.52,9.66-9.28,14.23-14.16a10.94,10.94,0,0,1,8.6-3.85q17.93.12,35.86,0a10.43,10.43,0,0,1,8.55,3.92,97.3,97.3,0,0,0,16.51,15.87c6.22,4.52,14.45,2.25,16.79-4.89a45.26,45.26,0,0,0,2.35-13.67A112.31,112.31,0,0,0,155.14,110.09ZM79.38,96.52a2.62,2.62,0,0,1-2.62,2.62H69.7v7.07a2.61,2.61,0,0,1-2.62,2.61H64.69a2.61,2.61,0,0,1-2.61-2.61V99.14H55a2.61,2.61,0,0,1-2.61-2.62V94.14A2.61,2.61,0,0,1,55,91.52h7.07V84.45a2.61,2.61,0,0,1,2.61-2.61h2.39a2.61,2.61,0,0,1,2.62,2.61v7.07h7.06a2.62,2.62,0,0,1,2.62,2.62Zm37.89-19.13a6.59,6.59,0,0,1,6.35,6.45c-.08,3.16-2.86,6.42-6.34,6.14A6.07,6.07,0,0,1,111,83.84,6.45,6.45,0,0,1,117.27,77.39Zm0,31.19a6.37,6.37,0,0,1-6.25-6.42A6.18,6.18,0,0,1,117.29,96a6.34,6.34,0,0,1,6.33,6.33A6.55,6.55,0,0,1,117.27,108.58Zm16.78-8.52a6.62,6.62,0,0,1-6.37-6.27,6.29,6.29,0,0,1,6.15-6.34,6.23,6.23,0,0,1,6.51,6.12A6.59,6.59,0,0,1,134.05,100.06Z"/></g></g></g></svg>