<svg xmlns="http://www.w3.org/2000/svg" viewBox="0 0 190.69 202.04"><defs><style>.cls-1{fill:#54b081;}.cls-2{fill:#afdbaf;}.cls-3{fill:#7bd194;}.cls-4{fill:#59b575;}.cls-5{fill:#fff;}</style></defs><g id="Layer_2" data-name="Layer 2"><g id="Layer_1-2" data-name="Layer 1"><circle class="cls-1" cx="95.35" cy="106.69" r="95.35"/><circle class="cls-2" cx="95.35" cy="95.35" r="95.35" transform="translate(-39.49 95.35) rotate(-45)"/><circle class="cls-3" cx="95.35" cy="101.02" r="95.35" transform="translate(-31.4 44.18) rotate(-22.5)"/><path class="cls-4" d="M95.35,173.67A72.66,72.66,0,1,1,168,101,72.74,72.74,0,0,1,95.35,173.67Z"/><path class="cls-5" d="M138.11,92.45a8,8,0,0,1,0,11.62,8.33,8.33,0,0,1-6,2.4H103.83v28.9a7.74,7.74,0,0,1-2.49,5.78,8.69,8.69,0,0,1-12,0,7.74,7.74,0,0,1-2.49-5.78v-28.9H58.58a8.33,8.33,0,0,1-6-2.4,8,8,0,0,1,0-11.62,8.45,8.45,0,0,1,6-2.34H86.86V62.85a7.74,7.74,0,0,1,2.49-5.78,8.69,8.69,0,0,1,12,0,7.74,7.74,0,0,1,2.49,5.78V90.11h28.28A8.45,8.45,0,0,1,138.11,92.45Z"/></g></g></svg>