<svg xmlns="http://www.w3.org/2000/svg" xmlns:xlink="http://www.w3.org/1999/xlink" viewBox="0 0 190.69 201.32"><defs><style>.cls-1{isolation:isolate;}.cls-2{fill:#e36f25;}.cls-3{fill:#ffc070;}.cls-4{fill:#ffa248;}.cls-5{opacity:0.2;mix-blend-mode:overlay;fill:url(#linear-gradient);}.cls-6{fill:#ffe1af;}.cls-7{opacity:0.48;mix-blend-mode:multiply;}.cls-8{fill:#ce8855;}.cls-9{fill:#fff8ae;}</style><linearGradient id="linear-gradient" x1="95.35" y1="180.68" x2="95.35" y2="-180.77" gradientUnits="userSpaceOnUse"><stop offset="0"/><stop offset="0.31" stop-color="#565656"/><stop offset="0.65" stop-color="#b0b0b0"/><stop offset="0.89" stop-color="#e9e9e9"/><stop offset="1" stop-color="#fff"/></linearGradient></defs><g class="cls-1"><g id="Layer_2" data-name="Layer 2"><g id="Layer_1-2" data-name="Layer 1"><circle class="cls-2" cx="95.35" cy="105.97" r="95.35" transform="translate(-47.01 98.46) rotate(-45)"/><circle class="cls-3" cx="95.35" cy="95.35" r="95.35"/><circle class="cls-4" cx="95.35" cy="100.66" r="95.35"/><circle class="cls-5" cx="95.35" cy="100.66" r="95.35"/><path class="cls-6" d="M37.38,22c.53.8,3.36-.12,6.31-2.06s4.93-4.17,4.4-5-3.36.11-6.31,2S36.85,21.14,37.38,22Z"/><g class="cls-7"><path d="M85.41,169.89c-10.27,0-16-1.86-17.88-5.85-1.51-3.13-.51-6.84,3.06-11.36a23.72,23.72,0,0,1,5.9-4.68c2.69-1.72,5.47-3.51,5.76-5.44.75-5-3.36-9.87-7.46-12.8-1.24-.89-2.49-1.75-3.74-2.6-6.13-4.19-12.46-8.52-16.32-15.89A25.81,25.81,0,0,1,53,105.14c-.19-.92-.45-2.22-.73-3.25h0a28.62,28.62,0,0,1-4.4.46A19.7,19.7,0,0,1,43.2,63.57a7.78,7.78,0,0,1,2-.22,31.28,31.28,0,0,1,3.28.24l.47,0a70,70,0,0,1,.43-12c1.95-9.24,10.25-9.41,13.79-9.49,2.46,0,4.91-.07,7.37-.07,5.67,0,11.43.11,17,.22,4.35.09,8.68.17,13,.21l16.12.13c1.11,0,2.09,0,3.1-.09,1.17-.06,2.38-.11,3.58-.11a19.1,19.1,0,0,1,5.94.76c7.59,2.48,7.36,9.29,7.21,13.8-.15,4.21.05,5.72,1.52,6.39a10.5,10.5,0,0,0,2.83.34,14.84,14.84,0,0,1,5.19.84,20.11,20.11,0,0,1,8.81,7.29,5.88,5.88,0,0,1,1,1.54,6.07,6.07,0,0,1,.76,1.93c2.62,7.55,1.32,15-3.58,20.5a19.86,19.86,0,0,1-9.78,6,11,11,0,0,1-2.74.33h0a22.79,22.79,0,0,1-3.79-.41c-.62-.11-1.22-.21-1.78-.27-.27.76-.48,1.56-.7,2.42a26.74,26.74,0,0,1-1.12,3.63,33.15,33.15,0,0,1-8.08,11.43,105.2,105.2,0,0,1-11.7,9.29L110.9,130c-4.22,3-5.8,4.11-6.5,9.42-.46,3.4-.49,3.68,3.37,7.22.68.62,1.68,1.36,2.74,2.14,4.28,3.17,10.75,8,8.56,14.8-1.87,5.87-8.75,5.87-11,5.87-1.41,0-2.83-.09-4.12-.18-1-.06-1.87-.12-2.61-.12-1.11,0-2.57.12-4.35.24C93.86,169.59,89.59,169.89,85.41,169.89Zm52.45-81.6a7.61,7.61,0,0,0,3.12-.88,5.76,5.76,0,0,0,2.36-4.35,4.94,4.94,0,0,0-1.8-4.12,5.74,5.74,0,0,0-3.42-1.38c-.91,0-1,.31-1,.67a22.65,22.65,0,0,0-.18,4.21c0,.9,0,1.79,0,2.63,0,.5,0,.89-.06,1.21a2.32,2.32,0,0,0,0,.9,5.48,5.48,0,0,1,.68,1.09ZM48.45,77.59a5.73,5.73,0,0,0-1.73.3,5.36,5.36,0,0,0-3.44,3.51A5.53,5.53,0,0,0,46.82,88a5,5,0,0,0,1.63.26,5.44,5.44,0,0,0,.57,0,1.54,1.54,0,0,1,.39-.16l.13,0c.06-.25.12-.54.17-.83l0-.22c0-.52,0-1.1,0-1.73,0-1.9.16-6.09-.74-7.6a3.79,3.79,0,0,0-.49,0l-.1-2.66Z"/><path d="M154.07,76a3.31,3.31,0,0,0-.53-1.36,3.06,3.06,0,0,0-.73-1.07A17.53,17.53,0,0,0,145,67c-2.45-1-6.07-.28-8.11-1.21-7.31-3.32,2-16.67-8.45-20.08-3.48-1.14-8.25-.4-11.86-.43l-16.08-.14c-12.41-.1-24.9-.61-37.3-.35-5.58.11-10,1.3-11.25,7.38-.49,2.34-.92,14.84.41,14-1.31.8-6.39-.6-8.54,0a17,17,0,0,0,4,33.55,25.48,25.48,0,0,0,3.87-.4,3.84,3.84,0,0,0,2-.76c1.61,1.71,2,8.83,3.43,11.51,4.3,8.21,12,12.38,19.26,17.56,4.56,3.26,9.5,9,8.54,15.36-.77,5.12-9.16,7.52-12.21,11.37C59,171.65,93.94,166.56,101.14,166.46c4.28-.05,13.59,1.95,15.4-3.72,2.06-6.43-7-10.92-10.56-14.17-4.36-4-4.81-5.1-4.22-9.53.94-7,3.69-8.42,8.79-12.09a114.21,114.21,0,0,0,12.69-10,30.89,30.89,0,0,0,7.46-10.53c.85-2.08,1.13-4.3,1.94-6.36a12.88,12.88,0,0,0,.46-1.32c3-.41,6.18,1.28,9.53.42A17.37,17.37,0,0,0,151.09,94C155.74,88.82,156.3,82.22,154.07,76Zm-19.6,1.76c.73-3.91,5.75-3.38,8.78-.84a8,8,0,0,1-.88,12.78c-1.88,1-5,2-7,.54.43.13-1.14-2.44-.65-1.19-.8-2-.57-1.81-.48-4.06S134.06,80,134.47,77.74ZM49.3,90.85a7.87,7.87,0,0,1-3.3-.34,8.18,8.18,0,0,1-5.27-9.86,8,8,0,0,1,5.15-5.28,8.29,8.29,0,0,1,2.75-.44,7,7,0,0,1,1.78.25c2.7,2.21,2,8.82,2,12a6.62,6.62,0,0,1-1.1,3.19C51.57,90,49.86,90.79,49.3,90.85Z"/></g><path class="cls-8" d="M85.41,168.12c-10.27,0-16-1.86-17.88-5.85-1.51-3.13-.51-6.84,3.06-11.36a23.72,23.72,0,0,1,5.9-4.68c2.69-1.73,5.47-3.51,5.76-5.44.75-5-3.36-9.87-7.46-12.8-1.24-.89-2.49-1.75-3.74-2.6-6.13-4.19-12.46-8.52-16.32-15.89A25.81,25.81,0,0,1,53,103.37c-.19-.93-.45-2.22-.73-3.25h0a28.62,28.62,0,0,1-4.4.46A19.7,19.7,0,0,1,43.2,61.8a7.78,7.78,0,0,1,2-.22,31.28,31.28,0,0,1,3.28.24l.47,0a70,70,0,0,1,.43-12c1.95-9.25,10.25-9.41,13.79-9.49,2.46-.05,4.91-.07,7.37-.07,5.67,0,11.43.11,17,.22,4.35.09,8.68.17,13,.21l16.12.13c1.11,0,2.09-.05,3.1-.09,1.17-.06,2.38-.11,3.58-.11a19.1,19.1,0,0,1,5.94.76c7.59,2.48,7.36,9.29,7.21,13.8-.15,4.21.05,5.72,1.52,6.39a10.5,10.5,0,0,0,2.83.34,14.84,14.84,0,0,1,5.19.84,20.11,20.11,0,0,1,8.81,7.29,5.88,5.88,0,0,1,1,1.54,6,6,0,0,1,.76,1.93c2.62,7.55,1.32,15-3.58,20.5a19.93,19.93,0,0,1-9.78,6,11,11,0,0,1-2.74.33h0a22.79,22.79,0,0,1-3.79-.41c-.62-.11-1.22-.21-1.78-.27-.27.75-.48,1.56-.7,2.41a26.43,26.43,0,0,1-1.12,3.64,33.15,33.15,0,0,1-8.08,11.43,105.2,105.2,0,0,1-11.7,9.29l-2.48,1.78c-4.22,3-5.8,4.11-6.5,9.42-.46,3.4-.49,3.68,3.37,7.22.68.62,1.68,1.36,2.74,2.14,4.28,3.17,10.75,8,8.56,14.8-1.87,5.87-8.75,5.87-11,5.87-1.41,0-2.83-.09-4.12-.18-1-.06-1.87-.12-2.61-.12-1.11,0-2.57.12-4.35.24C93.86,167.82,89.59,168.12,85.41,168.12Zm52.45-81.61a7.58,7.58,0,0,0,3.12-.87,5.78,5.78,0,0,0,2.36-4.35,4.94,4.94,0,0,0-1.8-4.12,5.74,5.74,0,0,0-3.42-1.38c-.91,0-1,.31-1,.66a22.8,22.8,0,0,0-.18,4.22c0,.9,0,1.79,0,2.63,0,.5,0,.89-.06,1.21a2.32,2.32,0,0,0,0,.9,5.48,5.48,0,0,1,.68,1.09ZM48.45,75.82a5.43,5.43,0,0,0-1.73.3,5.34,5.34,0,0,0-3.44,3.51,5.53,5.53,0,0,0,3.54,6.58,5.25,5.25,0,0,0,1.63.26,5.44,5.44,0,0,0,.57,0,1.54,1.54,0,0,1,.39-.16l.13-.06c.06-.24.12-.53.17-.82l0-.22c0-.52,0-1.1,0-1.73,0-1.9.16-6.09-.74-7.6a3.79,3.79,0,0,0-.49,0l-.1-2.66Z"/><path class="cls-9" d="M154.07,74.21a3.31,3.31,0,0,0-.53-1.36,3.06,3.06,0,0,0-.73-1.07A17.53,17.53,0,0,0,145,65.22c-2.45-1-6.07-.29-8.11-1.21-7.31-3.32,2-16.67-8.45-20.08-3.48-1.14-8.25-.4-11.86-.43l-16.08-.14c-12.41-.1-24.9-.61-37.3-.35-5.58.11-10,1.3-11.25,7.38-.49,2.34-.92,14.84.41,14-1.31.8-6.39-.6-8.54,0a17,17,0,0,0,4,33.55,25.48,25.48,0,0,0,3.87-.4,3.84,3.84,0,0,0,2-.76c1.61,1.71,2,8.83,3.43,11.51,4.3,8.21,12,12.38,19.26,17.56,4.56,3.26,9.5,9,8.54,15.36-.77,5.12-9.16,7.52-12.21,11.37C59,169.88,93.94,164.79,101.14,164.69c4.28-.05,13.59,1.95,15.4-3.72,2.06-6.43-7-10.92-10.56-14.17-4.36-4-4.81-5.1-4.22-9.53.94-7,3.69-8.42,8.79-12.09a114.21,114.21,0,0,0,12.69-10,30.89,30.89,0,0,0,7.46-10.53c.85-2.08,1.13-4.3,1.94-6.36A13.8,13.8,0,0,0,133.1,97c3-.41,6.18,1.28,9.53.42a17.37,17.37,0,0,0,8.46-5.17C155.74,87.05,156.3,80.45,154.07,74.21ZM134.47,76c.73-3.92,5.75-3.38,8.78-.84a8,8,0,0,1-.88,12.78c-1.88,1-5,2-7,.54.43.13-1.14-2.44-.65-1.19-.8-2-.57-1.81-.48-4.06S134.06,78.22,134.47,76ZM49.3,89.08a7.87,7.87,0,0,1-3.3-.34,8.18,8.18,0,0,1-5.27-9.86,8,8,0,0,1,5.15-5.28,8.29,8.29,0,0,1,2.75-.44,7,7,0,0,1,1.78.25c2.7,2.2,2,8.81,2,12a6.62,6.62,0,0,1-1.1,3.19C51.57,88.18,49.86,89,49.3,89.08Z"/></g></g></g></svg>