<svg xmlns="http://www.w3.org/2000/svg" xmlns:xlink="http://www.w3.org/1999/xlink" viewBox="0 0 190.69 178.14"><defs><style>.cls-1{isolation:isolate;}.cls-10,.cls-11,.cls-2{fill:#fff;}.cls-10,.cls-3{opacity:0.7;}.cls-4{fill:#ffdb2d;}.cls-5,.cls-8{mix-blend-mode:soft-light;}.cls-6{fill:url(#linear-gradient);}.cls-7{fill:url(#linear-gradient-2);}.cls-8{opacity:0.33;}.cls-9{fill:url(#linear-gradient-3);}.cls-11{opacity:0.5;}.cls-12{fill:url(#radial-gradient);}</style><linearGradient id="linear-gradient" x1="95.34" y1="4.44" x2="95.34" y2="172.89" gradientUnits="userSpaceOnUse"><stop offset="0" stop-color="#fff"/><stop offset="1"/></linearGradient><linearGradient id="linear-gradient-2" x1="4.43" y1="88.67" x2="186.25" y2="88.67" xlink:href="#linear-gradient"/><linearGradient id="linear-gradient-3" x1="95.34" y1="15.21" x2="95.34" y2="162.12" xlink:href="#linear-gradient"/><radialGradient id="radial-gradient" cx="95.34" cy="88.67" r="87.63" xlink:href="#linear-gradient"/></defs><g class="cls-1"><g id="Layer_2" data-name="Layer 2"><g id="Layer_1-2" data-name="Layer 1"><path class="cls-2" d="M94.52,4.44c17.69,0,32.39,47,32.39,47s1.56-.06,4.17-.06c13.06,0,52.45,1.59,55.17,20.61a3.53,3.53,0,0,1,0,.65.8.8,0,0,0,0,.15s1,14-37.91,40.59c1.45,3.88,9,25,8.64,40.88,0,8.32-2.13,15.35-8.23,18a20,20,0,0,1-7.93,1.5c-19.26,0-45.48-21.07-45.48-21.07s-20.55,19-50.34,19c-.73,0-1.47,0-2.21,0-11.75-.37-15.28-8.81-15.15-19.15-.09-15.32,8.31-35.25,10-39-3.17-1.86-34-20.59-33.15-41.2a18.89,18.89,0,0,1,.18-2.8c2.06-14.24,22.94-16.86,38-16.86a133.34,133.34,0,0,1,15.48.88S76,5.43,94,4.45h.54m0-4.44h0l-.78,0c-9.19.5-18.45,9.37-28.3,27.1A204.74,204.74,0,0,0,55.22,48.6c-2.91-.26-7.4-.56-12.59-.56C10.07,48,1.61,59.28.25,68.7A24,24,0,0,0,0,72c-.39,10,5.15,20.38,16.46,31a117.19,117.19,0,0,0,15.58,12.1c-3.06,7.58-8.94,24-8.86,37.31-.26,20,12.07,23.33,19.45,23.56.79,0,1.57,0,2.35,0,24.93,0,43.55-12.36,50.45-17.72,7.59,5.62,28.49,19.84,45.37,19.84a24.3,24.3,0,0,0,9.69-1.87c7.17-3.09,10.84-10.5,10.91-22,.3-13.94-5.1-31.46-7.76-39.19,36.14-25.43,37.2-39.85,37-42.58a7.46,7.46,0,0,0,0-.83v-.16l0-.16c-3.14-22-42.7-24.42-59.56-24.42h-1a183.18,183.18,0,0,0-8.77-21C112.57,8.48,103.8,0,94.52,0Z"/><g class="cls-3"><path d="M37.9,113.51S1.38,92.64,4.64,70.14s53.47-16,53.47-16S76,6.24,94,5.26s32.93,47,32.93,47S183,49.93,186.25,72.75c0,0,1,14-38.15,40.76,0,0,19.57,50.54.65,58.69s-53.41-19.57-53.41-19.57-21.58,19.89-52.55,18.92S37.9,113.51,37.9,113.51Z"/></g><path class="cls-4" d="M37.9,112.7S1.38,91.83,4.64,69.34s53.47-16,53.47-16S76,5.43,94,4.45,126.91,51.4,126.91,51.4,183,49.12,186.25,72c0,0,1,14-38.15,40.75,0,0,19.57,50.54.65,58.69s-53.41-19.56-53.41-19.56-21.58,19.89-52.55,18.91S37.9,112.7,37.9,112.7Z"/><g class="cls-5"><path class="cls-6" d="M37.9,112.7S1.38,91.83,4.64,69.34s53.47-16,53.47-16S76,5.43,94,4.45,126.91,51.4,126.91,51.4,183,49.12,186.25,72c0,0,1,14-38.15,40.75,0,0,19.57,50.54.65,58.69s-53.41-19.56-53.41-19.56-21.58,19.89-52.55,18.91S37.9,112.7,37.9,112.7Z"/><path class="cls-7" d="M94.52,6.85c6.16,0,13.49,7.85,20.64,22.11a175.4,175.4,0,0,1,9.44,23.17l.56,1.76,1.85-.07s1.55-.06,4.07-.06c24.13,0,50.61,4.82,52.75,18.36-.07,1.13-1.76,14.45-37.09,38.59l-1.58,1.08.69,1.78c5.2,13.46,15.7,49.68,2,55.6a17.52,17.52,0,0,1-7,1.31c-18.18,0-43.71-20.33-44-20.54l-1.62-1.29-1.53,1.4c-.2.18-20.27,18.31-48.71,18.31-.71,0-1.42,0-2.14,0-4.91-.15-8.3-1.84-10.35-5.15-7.09-11.43,3.07-39.58,7.58-49.46l.92-2-1.91-1.1C38.75,110.4,4,90.29,7,69.68,8.9,56.82,30.13,54.9,42.63,54.9a131.94,131.94,0,0,1,15.17.86l1.9.24.68-1.79C65.21,41.29,80.7,7.6,94.11,6.87l.41,0m0-2.41H94C76,5.43,58.11,53.36,58.11,53.36a133.34,133.34,0,0,0-15.48-.88c-15.05,0-35.93,2.62-38,16.86C1.38,91.83,37.9,112.7,37.9,112.7s-26.09,57.06,4.89,58l2.21,0c29.78,0,50.34-18.94,50.34-18.94s26.22,21.06,45.48,21.06a19.8,19.8,0,0,0,7.93-1.5c18.92-8.15-.65-58.69-.65-58.69C187.23,86,186.25,72,186.25,72c-2.72-19-42.12-20.61-55.17-20.61-2.61,0-4.17.06-4.17.06s-14.7-47-32.39-47Z"/></g><g class="cls-8"><path class="cls-4" d="M45.25,109.63s-31.85-18.2-29-37.82S62.88,57.88,62.88,57.88s15.63-41.8,31.27-42.65,28.72,40.94,28.72,40.94,48.91-2,51.75,17.91c0,0,.85,12.23-33.27,35.55,0,0,17.06,44.07.57,51.18s-46.58-17.06-46.58-17.06-18.82,17.34-45.83,16.49S45.25,109.63,45.25,109.63Z"/><path class="cls-9" d="M94.63,17.63c9.93,0,21.18,24.08,25.93,39.26l.56,1.77,1.85-.07s1.35-.06,3.54-.06c20.89,0,43.81,4.14,45.69,15.72-.09,1.07-1.77,12.58-32.21,33.38l-1.58,1.08.69,1.79A143.87,143.87,0,0,1,145.44,133c1.86,10,2.58,22.56-4.48,25.6a15,15,0,0,1-6,1.11c-15.74,0-37.92-17.66-38.14-17.84l-1.63-1.3L93.71,142c-.18.16-17.53,15.88-42.27,15.88l-1.85,0c-4.17-.13-7.05-1.55-8.78-4.35-6.11-9.84,2.72-34.26,6.63-42.84l.92-2-1.91-1.09c-.31-.17-30.39-17.59-27.81-35.37,1.59-11,19.94-12.63,30.73-12.63a118,118,0,0,1,13.19.74l1.91.25.67-1.8a175.27,175.27,0,0,1,9.62-20.67c7.15-12.87,14.08-20.11,19.52-20.41h.35m0-2.42-.48,0c-15.64.85-31.27,42.65-31.27,42.65a116.08,116.08,0,0,0-13.51-.77c-13.12,0-31.33,2.28-33.13,14.7-2.84,19.62,29,37.82,29,37.82s-22.75,49.76,4.26,50.61l1.93,0c26,0,43.9-16.52,43.9-16.52s22.87,18.37,39.66,18.37a17.38,17.38,0,0,0,6.92-1.31c16.49-7.11-.57-51.18-.57-51.18,34.12-23.32,33.27-35.55,33.27-35.55-2.37-16.58-36.73-18-48.11-18-2.28,0-3.64.05-3.64.05s-12.82-41-28.24-41Z"/></g><path class="cls-10" d="M93.16,6.55S81,6.61,64.71,44.19c0,0,23.48-43.94,36-33.34C105.15,14.11,101.68,5.94,93.16,6.55Z"/><path class="cls-11" d="M56.56,55.09s-21.75.11-36.27,4.75c-6.76,2.15-11,11.39-12.47,11C5.21,70,10.92,49.4,56.56,55.09Z"/><g class="cls-5"><path class="cls-12" d="M37.9,112.7S1.38,91.83,4.64,69.34s53.47-16,53.47-16S76,5.43,94,4.45,126.91,51.4,126.91,51.4,183,49.12,186.25,72c0,0,1,14-38.15,40.75,0,0,19.57,50.54.65,58.69s-53.41-19.56-53.41-19.56-21.58,19.89-52.55,18.91S37.9,112.7,37.9,112.7Z"/></g></g></g></g></svg>