<svg xmlns="http://www.w3.org/2000/svg" xmlns:xlink="http://www.w3.org/1999/xlink" viewBox="0 0 256.57 253.04"><defs><style>.cls-1{fill:url(#linear-gradient);}.cls-2{fill:url(#linear-gradient-2);}</style><linearGradient id="linear-gradient" x1="128.28" x2="128.28" y2="253.04" gradientUnits="userSpaceOnUse"><stop offset="0" stop-color="#ffc070"/><stop offset="1" stop-color="#e36f25"/></linearGradient><linearGradient id="linear-gradient-2" x1="128.3" y1="5.26" x2="128.3" y2="247.79" gradientUnits="userSpaceOnUse"><stop offset="0" stop-color="#ffa54a"/><stop offset="1" stop-color="#ff802d"/></linearGradient></defs><g id="Layer_2" data-name="Layer 2"><g id="Layer_1-2" data-name="Layer 1"><path class="cls-1" d="M112.94,253c-20.33,0-31.58-3.68-35.41-11.58-3-6.19-1-13.54,6.07-22.48,2.9-3.67,7.36-6.52,11.67-9.27,5.33-3.41,10.84-6.94,11.41-10.76,1.49-9.84-6.65-19.54-14.76-25.34-2.46-1.76-5-3.46-7.42-5.15C72.37,160.17,59.83,151.61,52.2,137c-1.59-3-2.5-7.46-3.45-12.13-.38-1.84-.9-4.39-1.45-6.44h0a56.05,56.05,0,0,1-8.71.91A39.61,39.61,0,0,1,3.21,96.1,39.28,39.28,0,0,1,29.37,42.58a16.35,16.35,0,0,1,4-.42,64.35,64.35,0,0,1,6.51.47l.91.1c-.77-9.43.68-22.88.87-23.81C45.47.62,61.9.28,68.92.14Q76.19,0,83.5,0c11.22,0,22.63.22,33.65.44,8.6.17,17.18.33,25.75.4l31.9.27C177,1.11,179,1,181,.92,183.27.81,185.66.7,188,.7a37.83,37.83,0,0,1,11.77,1.51c15,4.91,14.56,18.39,14.26,27.31-.28,8.34.11,11.34,3,12.66,1.05.47,3.46.57,5.59.66,3.26.14,7,.29,10.29,1.67,6.87,2.85,12.42,7.44,17.43,14.43A11.61,11.61,0,0,1,252.44,62a11.67,11.67,0,0,1,1.5,3.83c5.19,14.93,2.62,29.7-7.08,40.57a39.49,39.49,0,0,1-19.35,11.81,21.26,21.26,0,0,1-5.43.67h0a43.54,43.54,0,0,1-7.5-.83c-1.23-.2-2.42-.41-3.53-.52-.53,1.49-.94,3.09-1.38,4.77a53.65,53.65,0,0,1-2.23,7.2c-3.36,8.16-8.44,15.35-16,22.62-7.21,6.94-15.32,12.76-23.16,18.39L163.38,174c-8.34,5.92-11.47,8.14-12.87,18.65-.89,6.73-1,7.28,6.69,14.29,1.33,1.22,3.31,2.69,5.41,4.24,8.47,6.27,21.28,15.75,16.95,29.3-3.71,11.61-17.32,11.61-21.79,11.61-2.8,0-5.6-.18-8.16-.35-1.93-.12-3.69-.24-5.17-.24-2.19,0-5.09.23-8.6.48C129.66,252.44,121.21,253,112.94,253ZM216.75,91.51a14.92,14.92,0,0,0,6.18-1.74,11.38,11.38,0,0,0,4.67-8.59A9.83,9.83,0,0,0,224,73a11.36,11.36,0,0,0-6.77-2.73c-1.8,0-1.91.61-2,1.32a45.49,45.49,0,0,0-.35,8.35c0,1.78,0,3.54,0,5.21,0,1-.09,1.75-.13,2.38a4.41,4.41,0,0,0,.08,1.79,10.45,10.45,0,0,1,1.34,2.16Zm-177-21.18a11.26,11.26,0,0,0-3.42.6,10.65,10.65,0,0,0-6.82,6.95,11,11,0,0,0,7,13,10.39,10.39,0,0,0,3.23.51,8.72,8.72,0,0,0,1.14-.07,3.19,3.19,0,0,1,.75-.32l.28-.1c.11-.49.22-1,.33-1.63l.08-.45c0-1,0-2.17.06-3.42.1-3.75.31-12-1.47-15-.3,0-.63-.05-1-.06l-.19-5.26Z"/><path class="cls-2" d="M248.84,67.15a6.45,6.45,0,0,0-1.05-2.68,6.2,6.2,0,0,0-1.45-2.13c-4-5.69-8.63-10.16-15.4-13-4.84-2-12-.57-16.05-2.41-14.46-6.56,4-33-16.73-39.74-6.89-2.25-16.33-.79-23.47-.86q-15.91-.15-31.83-.26C118.3,5.9,93.57,4.89,69,5.4,58,5.62,49.3,8,46.77,20c-1,4.63-1.82,29.38.8,27.78-2.58,1.58-12.64-1.19-16.9-.1a33.71,33.71,0,0,0,7.85,66.41,51,51,0,0,0,7.67-.79c2.5-.54,3.53-1.08,3.87-1.52,3.19,3.4,4,17.49,6.8,22.8,8.5,16.25,23.8,24.51,38.12,34.75,9,6.46,18.8,17.82,16.9,30.41-1.53,10.14-18.12,14.88-24.16,22.51-27.14,34.28,42.1,24.2,56.35,24,8.47-.11,26.9,3.85,30.48-7.36,4.08-12.74-13.88-21.63-20.9-28.06-8.64-7.91-9.52-10.09-8.35-18.86,1.86-13.91,7.3-16.66,17.39-23.93,8.63-6.21,17.44-12.33,25.12-19.73,6.29-6.06,11.42-12.7,14.77-20.84,1.69-4.11,2.23-8.5,3.84-12.58a24.3,24.3,0,0,0,.91-2.62c5.95-.8,12.23,2.55,18.86.83a34.27,34.27,0,0,0,16.75-10.22C252.15,92.57,253.25,79.51,248.84,67.15Zm-38.79,3.5c1.43-7.76,11.38-6.69,17.37-1.66,8.19,6.88,6.78,19.39-1.75,25.29-3.71,2-10,3.9-13.82,1.06.84.25-2.27-4.82-1.29-2.35-1.59-4-1.13-3.58-1-8S209.23,75.09,210.05,70.65ZM41.46,96.6a15.76,15.76,0,0,1-6.54-.68A16.2,16.2,0,0,1,24.49,76.41,15.84,15.84,0,0,1,34.68,65.94a16.51,16.51,0,0,1,5.44-.86,13.7,13.7,0,0,1,3.53.5c5.36,4.36,3.89,17.44,4,23.76-.45,2.32-.69,4.56-2.17,6.32C46,94.81,42.57,96.48,41.46,96.6Z"/></g></g></svg>