<svg xmlns="http://www.w3.org/2000/svg" viewBox="0 0 159.69 189.61"><defs><style>.cls-1{isolation:isolate;}.cls-2{opacity:0.48;mix-blend-mode:multiply;}.cls-3{fill:#ce8855;}.cls-4{fill:#fff8ae;}</style></defs><g class="cls-1"><g id="Layer_2" data-name="Layer 2"><g id="Layer_1-2" data-name="Layer 1"><g class="cls-2"><circle cx="79.85" cy="48.21" r="45.75"/><path d="M79.85,6.14a42.07,42.07,0,1,0,42.06,42.07A42.05,42.05,0,0,0,79.85,6.14Z"/><path d="M79.85,6.14a42.07,42.07,0,1,0,42.06,42.07A42.05,42.05,0,0,0,79.85,6.14Z"/></g><circle class="cls-3" cx="79.85" cy="45.75" r="45.75"/><path d="M79.85,3.68a42.07,42.07,0,1,0,42.06,42.07A42.05,42.05,0,0,0,79.85,3.68Z"/><path class="cls-4" d="M79.85,3.68a42.07,42.07,0,1,0,42.06,42.07A42.05,42.05,0,0,0,79.85,3.68Z"/><g class="cls-2"><path d="M10.32,189.61A10.21,10.21,0,0,1,0,179.28V154.93A63.54,63.54,0,0,1,63.46,91.46H96.23a63.54,63.54,0,0,1,63.46,63.47v24.35a10.21,10.21,0,0,1-10.32,10.33Z"/><path d="M96.23,95.15H63.46A59.81,59.81,0,0,0,3.68,154.93v24.35a6.52,6.52,0,0,0,6.64,6.64H149.37a6.52,6.52,0,0,0,6.64-6.64V154.93A59.81,59.81,0,0,0,96.23,95.15Z"/><path d="M96.23,95.15H63.46A59.81,59.81,0,0,0,3.68,154.93v24.35a6.52,6.52,0,0,0,6.64,6.64H149.37a6.52,6.52,0,0,0,6.64-6.64V154.93A59.81,59.81,0,0,0,96.23,95.15Z"/></g><path class="cls-3" d="M10.32,187.15A10.21,10.21,0,0,1,0,176.83V152.47A63.53,63.53,0,0,1,63.46,89H96.23a63.53,63.53,0,0,1,63.46,63.46v24.36a10.21,10.21,0,0,1-10.32,10.32Z"/><path d="M96.23,92.69H63.46A59.81,59.81,0,0,0,3.68,152.47v24.36a6.52,6.52,0,0,0,6.64,6.64H149.37a6.52,6.52,0,0,0,6.64-6.64V152.47A59.81,59.81,0,0,0,96.23,92.69Z"/><path class="cls-4" d="M96.23,92.69H63.46A59.81,59.81,0,0,0,3.68,152.47v24.36a6.52,6.52,0,0,0,6.64,6.64H149.37a6.52,6.52,0,0,0,6.64-6.64V152.47A59.81,59.81,0,0,0,96.23,92.69Z"/></g></g></g></svg>