<svg xmlns="http://www.w3.org/2000/svg" viewBox="0 0 190.69 203.82"><defs><style>.cls-1{isolation:isolate;}.cls-2{fill:#54b081;}.cls-3{fill:#afdbaf;}.cls-4{fill:#7bd194;}.cls-5{fill:#59b575;}.cls-6{opacity:0.3;mix-blend-mode:multiply;}.cls-7{fill:#cceaa2;}</style></defs><g class="cls-1"><g id="Layer_2" data-name="Layer 2"><g id="Layer_1-2" data-name="Layer 1"><circle class="cls-2" cx="95.35" cy="108.47" r="95.35" transform="translate(-32.13 176.35) rotate(-76.72)"/><circle class="cls-3" cx="95.35" cy="95.35" r="95.35" transform="translate(-39.49 95.35) rotate(-45)"/><circle class="cls-4" cx="95.35" cy="101.91" r="95.35" transform="translate(-44.13 97.27) rotate(-45)"/><circle class="cls-5" cx="95.35" cy="101.91" r="82.22"/><g class="cls-6"><path d="M121.61,105.19,135.3,92.5a17.87,17.87,0,0,0,.94-25.25h0A17.86,17.86,0,0,0,111,66.31L95.35,80.83,79.69,66.31a17.86,17.86,0,0,0-25.24.94h0A17.86,17.86,0,0,0,55.4,92.5l13.68,12.69L55.4,117.89a17.86,17.86,0,1,0,24.29,26.19l15.66-14.52L111,144.08a17.86,17.86,0,0,0,24.3-26.19Z"/></g><path class="cls-7" d="M121.61,98.63l13.69-12.7a17.86,17.86,0,0,0,.94-25.24h0A17.86,17.86,0,0,0,111,59.74L95.35,74.26,79.69,59.74a17.86,17.86,0,0,0-25.24.95h0a17.85,17.85,0,0,0,.95,25.24l13.68,12.7L55.4,111.32a17.86,17.86,0,1,0,24.29,26.19L95.35,123,111,137.51a17.86,17.86,0,0,0,24.3-26.19Z"/></g></g></g></svg>